<?xml version="1.0" standalone="no"?>
<!DOCTYPE svg PUBLIC "-//W3C//DTD SVG 20010904//EN"
 "http://www.w3.org/TR/2001/REC-SVG-20010904/DTD/svg10.dtd">
<svg version="1.0" xmlns="http://www.w3.org/2000/svg"
 width="668.000000pt" height="668.000000pt" viewBox="0 0 668.000000 668.000000"
 preserveAspectRatio="xMidYMid meet">
<metadata>
Created by potrace 1.11, written by Peter Selinger 2001-2013
</metadata>
<g transform="translate(0.000000,668.000000) scale(0.100000,-0.100000)"
fill="#000000" stroke="none">
<path d="M3267 6564 c-1 -1 -51 -5 -112 -8 -60 -4 -123 -8 -140 -10 -16 -2
-57 -7 -90 -11 -32 -4 -68 -9 -80 -11 -11 -2 -40 -7 -65 -10 -25 -3 -48 -8
-51 -10 -3 -2 -21 -6 -40 -9 -163 -28 -557 -156 -687 -224 -9 -5 -55 -28 -102
-51 -166 -82 -332 -186 -495 -308 -55 -41 -102 -78 -105 -81 -3 -3 -39 -35
-80 -71 -350 -303 -645 -707 -833 -1141 -64 -149 -146 -391 -173 -510 -2 -10
-6 -27 -8 -36 -14 -62 -49 -250 -57 -313 -35 -257 -32 -638 6 -885 3 -16 7
-48 11 -70 4 -33 22 -120 49 -244 51 -233 204 -612 343 -846 353 -597 864
-1054 1489 -1330 100 -45 314 -125 373 -140 8 -3 49 -13 90 -25 41 -11 87 -22
102 -25 16 -3 56 -12 90 -20 186 -42 384 -60 653 -59 268 0 356 8 590 50 169
30 572 147 599 175 6 5 16 9 24 9 12 0 257 113 307 142 11 6 56 33 101 58 140
81 356 235 479 340 64 55 286 279 346 350 210 246 400 554 522 845 45 108 112
296 122 338 2 12 14 56 25 97 31 113 59 259 75 385 4 28 8 61 11 75 22 128 22
580 0 710 -3 14 -7 52 -11 85 -8 72 -49 281 -76 385 -24 91 -99 321 -109 335
-4 6 -11 21 -15 35 -17 62 -172 379 -226 463 -94 146 -162 244 -223 322 -129
165 -177 217 -400 430 -41 40 -222 182 -306 241 -195 137 -440 267 -680 362
-142 56 -409 133 -543 156 -15 3 -53 9 -85 15 -31 6 -84 13 -117 17 -33 3 -68
8 -78 10 -41 7 -414 23 -420 18z"/>
</g>
</svg>
